HIERARCHY
ROOT root
{
	OFFSET 0.000000 0.000000 0.000000
	CHANNELS 6 Xposition Yposition Zposition Zrotation Yrotation Xrotation
	JOINT lhip
	{
		OFFSET 0.058581 -0.082280 -0.017664
		CHANNELS 3 Zrotation Yrotation Xrotation
		JOINT lknee
		{
			OFFSET 0.043451 -0.386469 0.008037
			CHANNELS 3 Zrotation Yrotation Xrotation
			JOINT lankle
			{
				OFFSET -0.014790 -0.426874 -0.037428
				CHANNELS 3 Zrotation Yrotation Xrotation
				JOINT ltoe
				{
					OFFSET 0.041054 -0.060286 0.122042
					CHANNELS 3 Zrotation Yrotation Xrotation
					End Site
					{
						OFFSET 0.000000 0.000000 0.000000
					}
				}
			}
		}
	}
	JOINT rhip
	{
		OFFSET -0.060310 -0.090513 -0.013543
		CHANNELS 3 Zrotation Yrotation Xrotation
		JOINT rknee
		{
			OFFSET -0.043257 -0.383688 -0.004843
			CHANNELS 3 Zrotation Yrotation Xrotation
			JOINT rankle
			{
				OFFSET 0.019056 -0.420046 -0.034562
				CHANNELS 3 Zrotation Yrotation Xrotation
				JOINT rtoe
				{
					OFFSET -0.034840 -0.062106 0.130323
					CHANNELS 3 Zrotation Yrotation Xrotation
					End Site
					{
						OFFSET 0.000000 0.000000 0.000000
					}
				}
			}
		}
	}
	JOINT lowerback
	{
		OFFSET 0.004439 0.124404 -0.038385
		CHANNELS 3 Zrotation Yrotation Xrotation
		JOINT upperback
		{
			OFFSET 0.004488 0.137956 0.026820
			CHANNELS 3 Zrotation Yrotation Xrotation
			JOINT chest
			{
				OFFSET -0.002265 0.056032 0.002855
				CHANNELS 3 Zrotation Yrotation Xrotation
				JOINT lowerneck
				{
					OFFSET -0.013390 0.211636 -0.033468
					CHANNELS 3 Zrotation Yrotation Xrotation
					JOINT upperneck
					{
						OFFSET 0.010113 0.088937 0.050410
						CHANNELS 3 Zrotation Yrotation Xrotation
						End Site
						{
							OFFSET 0.000000 0.000000 0.000000
						}
					}
				}
				JOINT lclavicle
				{
					OFFSET 0.071702 0.114000 -0.018898
					CHANNELS 3 Zrotation Yrotation Xrotation
					JOINT lshoulder
					{
						OFFSET 0.122921 0.045205 -0.019046
						CHANNELS 3 Zrotation Yrotation Xrotation
						JOINT lelbow
						{
							OFFSET 0.255332 -0.015649 -0.022946
							CHANNELS 3 Zrotation Yrotation Xrotation
							JOINT lwrist
							{
								OFFSET 0.265709 0.012698 -0.007375
								CHANNELS 3 Zrotation Yrotation Xrotation
								End Site
								{
									OFFSET 0.000000 0.000000 0.000000
								}
							}
						}
					}
				}
				JOINT rclavicle
				{
					OFFSET -0.082954 0.112472 -0.023707
					CHANNELS 3 Zrotation Yrotation Xrotation
					JOINT rshoulder
					{
						OFFSET -0.113228 0.046853 -0.008472
						CHANNELS 3 Zrotation Yrotation Xrotation
						JOINT relbow
						{
							OFFSET -0.260127 -0.014369 -0.031269
							CHANNELS 3 Zrotation Yrotation Xrotation
							JOINT rwrist
							{
								OFFSET -0.269108 0.006794 -0.006027
								CHANNELS 3 Zrotation Yrotation Xrotation
								End Site
								{
									OFFSET 0.000000 0.000000 0.000000
								}
							}
						}
					}
				}
			}
		}
	}
}
MOTION
Frames: 7
Frame Time: 0.033333
0.005885 0.233452 1.003383 91.848578 0.537679 89.499463 2.034133 2.087144 1.262620 0.954707 -7.946078 -0.726463 -1.076820 8.065033 -3.463856 0.000000 -0.000000 0.000000 -1.618262 -3.882241 2.275199 -1.720654 -0.750709 -1.751721 2.963449 -7.870408 -2.605039 0.000000 -0.000000 0.000000 0.530902 2.002924 1.657534 0.996834 -4.513393 8.357409 -0.110693 -0.772600 -5.792617 -1.009335 -4.523638 -1.642163 5.788752 -5.322060 -5.855336 -24.093983 -5.966667 3.141500 -59.087243 -5.832486 16.561948 11.081255 -16.985165 5.133024 -14.046742 -8.384753 10.986644 22.642966 12.177150 3.033535 58.584812 5.141848 16.476330 -6.093190 18.292988 6.735230 12.812162 6.674757 6.035254 
0.006296 0.233213 1.003356 91.732983 0.610676 89.467481 2.110006 2.071505 1.297441 0.975149 -7.842707 -0.644323 -1.196307 8.096322 -3.451620 0.000000 -0.000000 0.000000 -1.511790 -3.897098 2.298584 -1.760227 -0.677902 -1.734938 3.051624 -7.862907 -2.590076 0.000000 -0.000000 0.000000 0.706538 1.961348 1.833154 0.950862 -4.561213 8.211165 -0.064398 -0.846765 -5.582498 -0.961400 -4.348260 -1.779974 5.710175 -5.265211 -5.857736 -23.993190 -6.241282 3.298538 -58.977720 -5.831790 16.472280 11.037753 -17.010137 5.387378 -14.326295 -8.481703 11.095256 22.678379 12.313805 3.095041 58.480064 5.220767 16.352012 -6.116897 18.189502 6.691148 12.845316 6.708192 6.025137 
0.006603 0.232745 1.003391 91.335443 0.618627 89.488740 2.158212 2.004630 1.340051 0.913102 -7.593728 -0.606108 -1.152875 8.317228 -3.502694 0.000000 -0.000000 0.000000 -1.466745 -3.735259 2.124314 -1.776352 -0.427915 -1.545088 3.023689 -7.844799 -2.622676 0.000000 -0.000000 0.000000 0.751556 1.991847 1.994761 0.977332 -4.533958 8.217421 -0.049034 -0.856003 -5.538326 -0.896133 -4.351940 -1.857887 5.728068 -5.316571 -6.000833 -23.914345 -6.303056 3.354295 -58.707600 -5.757187 16.541385 10.845039 -17.309533 5.806676 -14.514561 -8.476704 11.157397 22.655228 12.381668 3.083255 58.426826 5.283496 16.386060 -6.071789 18.212785 6.769900 12.863128 6.688376 5.945119 
0.007203 0.232348 1.003437 91.151810 0.604070 89.504367 2.145173 1.993967 1.312751 0.923493 -7.489810 -0.448040 -1.165458 8.431670 -3.602795 0.000000 -0.000000 0.000000 -1.475122 -3.716918 2.109831 -1.761816 -0.380804 -1.507123 3.071088 -7.757953 -2.647128 0.000000 -0.000000 0.000000 0.735409 2.021330 2.144650 1.007721 -4.569997 8.207002 0.027516 -0.909366 -5.532852 -0.893069 -4.266619 -1.955391 5.717054 -5.187313 -5.938279 -23.761469 -6.433704 3.388863 -58.557278 -5.746052 16.644367 10.536288 -17.451769 6.303920 -14.614809 -8.478182 11.284683 22.647969 12.420399 3.110352 58.327381 5.236269 16.397917 -6.033111 18.203500 6.809375 12.930202 6.735657 5.921515 
0.007410 0.232251 1.003418 91.032539 0.601457 89.604905 2.133804 2.060496 1.215668 0.933550 -7.454563 -0.426105 -1.172529 8.420074 -3.587550 0.000000 -0.000000 0.000000 -1.468549 -3.694927 1.936368 -1.775560 -0.323523 -1.372307 3.099769 -7.772759 -2.619185 0.000000 -0.000000 0.000000 0.784484 1.997544 2.111273 1.043191 -4.603777 8.273542 -0.034874 -0.892515 -5.608701 -0.893828 -4.147012 -1.850865 5.756661 -5.225252 -6.046763 -23.513561 -6.490943 3.213995 -58.533398 -5.702809 16.831589 10.160566 -17.381562 6.260243 -14.634219 -8.272173 11.356411 22.621040 12.399797 3.028774 58.334210 5.198700 16.431035 -5.996320 18.150898 6.719627 13.014325 6.663797 6.059380 
0.008272 0.231831 1.003403 90.851030 0.635690 89.599005 2.192307 1.979067 1.355783 0.945599 -7.274830 -0.497531 -1.154418 8.488151 -3.590547 0.000000 -0.000000 0.000000 -1.411764 -3.643645 2.115875 -1.768829 -0.283577 -1.607603 3.078316 -7.679733 -2.600237 0.000000 -0.000000 0.000000 0.815568 2.048879 2.111761 1.082307 -4.623243 8.312992 -0.019723 -0.867471 -5.576339 -0.837090 -4.151750 -1.736815 5.815447 -5.342912 -6.101387 -23.535897 -6.507492 3.188217 -58.344938 -5.686827 16.856701 10.062118 -17.580135 6.468155 -14.835043 -8.298239 11.542954 22.669231 12.364144 3.032075 58.259012 5.143358 16.365446 -6.072007 18.183594 6.687470 13.027539 6.657096 6.080791 
0.008775 0.231598 1.003314 90.857800 0.639616 89.728639 2.216865 2.075375 1.184772 0.933683 -7.391351 -0.389139 -1.150936 8.421694 -3.584092 0.000000 -0.000000 0.000000 -1.370290 -3.639285 2.027399 -1.790205 -0.243885 -1.663683 3.019052 -7.629363 -2.628436 0.000000 -0.000000 0.000000 0.793343 1.946862 2.047455 1.155779 -4.655765 8.305546 0.003351 -0.833140 -5.540610 -0.832676 -4.163841 -1.757168 5.800962 -5.453047 -6.072230 -23.553965 -6.484743 3.061383 -58.265020 -5.701604 16.943220 9.938958 -17.619236 6.494389 -14.784773 -8.351219 11.670789 22.646519 12.266900 2.947882 58.212119 5.076417 16.336723 -6.080697 18.261075 6.693915 12.975976 6.673046 6.212681 
